<?xml version="1.0" encoding="utf-8"?>
<!-- Generator: Adobe Illustrator 23.0.5, SVG Export Plug-In . SVG Version: 6.00 Build 0)  -->
<svg version="1.1" id="Layer_1" xmlns="http://www.w3.org/2000/svg" xmlns:xlink="http://www.w3.org/1999/xlink" x="0px" y="0px"
	 viewBox="0 0 34 35" style="enable-background:new 0 0 34 35;" xml:space="preserve">
<style type="text/css">
	.st0{fill:#FFFFFF;}
	.st1{fill:url(#SVGID_1_);}
	.st2{fill:url(#SVGID_2_);}
</style>
<path class="st0" d="M13.5,5.2c0.3,0.1,0.6,0.4,1.1,0.9l11.8,11c-2,0.1-3.9,0.5-5.8,1.2l-7.8-7.4c-0.1-0.1-0.1-0.1-0.2-0.1
	c-0.1,0-0.2,0-0.2,0.1c-0.1,0-0.1,0.1-0.2,0.2c0,0.1,0,0.2,0,0.3l2.5,10.5c-1.5,1.3-2.9,2.8-3.9,4.5L7.1,10.4C6.9,9.7,6.8,9.3,6.9,9
	c0-0.3,0.2-0.6,0.3-0.8c0.2-0.3,0.5-0.4,1.2-0.8l2.9-1.7c0.6-0.4,1-0.6,1.3-0.6C12.9,5,13.2,5.1,13.5,5.2z"/>
<path class="st0" d="M7.5,28c1.9,1.2,4.2,1.9,6.6,1.9c0.6,0,1.3-0.1,1.9-0.2l-3.3-17.3L7.5,28z"/>
<path class="st0" d="M18.4,12.3h7.9c-0.1-0.4-0.3-0.7-0.5-1.1h-7.6L18.4,12.3z"/>
<path class="st0" d="M27.1,16.9c0-0.5,0-1-0.1-1.5L22.3,27C25.2,24.6,27.1,21,27.1,16.9z"/>
<path class="st0" d="M17.5,7.6l0.3,1.7h6.8C22.3,6.1,18.5,4,14.2,4C7,4,1.2,9.8,1.2,16.9c0,3.1,1.1,5.9,2.9,8.1L10,7.6h4.4l-0.1,0.2
	h0.1l4.1,21.3c0.2-0.1,0.4-0.1,0.6-0.2L15,7.6H17.5z"/>
<polygon class="st0" points="18.7,14.2 19.7,19.6 21.9,14.2 "/>
<polygon class="st0" points="24.1,14.2 20.4,23.3 20.8,25.2 25.3,14.2 "/>
<path class="st0" d="M14.3,7.8l0.1-0.2H10L4.1,25.1c0.9,1.2,2.1,2.2,3.4,2.9l5.2-15.6l3.3,17.3c0.8-0.1,1.6-0.3,2.4-0.6L14.3,7.8
	L14.3,7.8z"/>
<path class="st0" d="M18.4,12.3l-0.2-1.1h7.6c-0.3-0.7-0.7-1.3-1.2-1.9h-6.8l-0.3-1.7H15l4,21.3c1.2-0.5,2.3-1.1,3.3-1.9L27,15.4
	c-0.1-1.1-0.4-2.1-0.8-3.1H18.4z M18.7,14.2h3.2l-2.2,5.3L18.7,14.2z M20.4,23.3l3.7-9h1.2l-4.5,11L20.4,23.3z"/>
<g>
	<linearGradient id="SVGID_1_" gradientUnits="userSpaceOnUse" x1="14.9688" y1="20.0756" x2="45.0635" y2="20.0756">
		<stop  offset="0" style="stop-color:#009EE2"/>
		<stop  offset="1" style="stop-color:#009540"/>
	</linearGradient>
	<path class="st1" d="M26.2,12.3h-7.9l-0.2-1.1h7.6h8.2V9.3h-9.3h-6.8l-0.3-1.7H15l4,21.3l0.7,3.7h2.5l-0.7-3.6l0.8-2L27,15.4
		l0.5-1.2H34v-1.9H26.2z M18.7,14.2h3.2l-2.2,5.3L18.7,14.2z M20.8,25.2l-0.4-2l3.7-9h1.2L20.8,25.2z"/>
	<linearGradient id="SVGID_2_" gradientUnits="userSpaceOnUse" x1="4.1263" y1="20.1692" x2="27.8373" y2="20.1692">
		<stop  offset="0" style="stop-color:#009EE2"/>
		<stop  offset="1" style="stop-color:#009540"/>
	</linearGradient>
	<path class="st2" d="M14.4,7.8L14.4,7.8l0-0.2H10L4.1,25.1c0.9,1.2,2.1,2.2,3.4,2.9l5.2-15.6l3.3,17.3l0.6,3h2.5l-0.7-3.6L14.4,7.8
		z"/>
</g>
</svg>
