<?xml version="1.0" encoding="utf-8"?>
<!-- Generator: Adobe Illustrator 23.0.5, SVG Export Plug-In . SVG Version: 6.00 Build 0)  -->
<svg version="1.1" id="Layer_1" xmlns="http://www.w3.org/2000/svg" xmlns:xlink="http://www.w3.org/1999/xlink" x="0px" y="0px"
	 viewBox="0 0 135.9 49" style="enable-background:new 0 0 135.9 49;" xml:space="preserve">
<style type="text/css">
	.st0{fill:url(#SVGID_1_);}
	.st1{fill:url(#SVGID_2_);}
	.st2{fill:url(#SVGID_3_);}
	.st3{fill:url(#SVGID_4_);}
	.st4{fill:url(#SVGID_5_);}
	.st5{fill:url(#SVGID_6_);}
	.st6{fill:url(#SVGID_7_);}
	.st7{fill:url(#SVGID_8_);}
	.st8{fill:url(#SVGID_9_);}
	.st9{fill:url(#SVGID_10_);}
	.st10{fill:url(#SVGID_11_);}
	.st11{fill:url(#SVGID_12_);}
	.st12{fill:#FFFFFF;}
	.st13{fill:url(#SVGID_13_);}
	.st14{fill:url(#SVGID_14_);}
</style>
<title>logo-white</title>
<g>
	<g>
		
			<linearGradient id="SVGID_1_" gradientUnits="userSpaceOnUse" x1="23.37" y1="31.2247" x2="35.31" y2="31.2247" gradientTransform="matrix(1 0 0 -1 7 58.05)">
			<stop  offset="0" style="stop-color:#009EE2"/>
			<stop  offset="1" style="stop-color:#009540"/>
		</linearGradient>
		<path class="st0" d="M42.3,32.9C42.1,33,41.8,33,41.6,33c-0.6,0-1.1-0.1-1.6-0.4c-0.7-0.5-1.3-1.2-1.6-2l-0.5-1.2h-5.2L31.2,33
			h-0.8l5.2-12.3h0.6l4.1,10c0.2,0.5,0.5,1,0.9,1.4c0.3,0.3,0.8,0.5,1.2,0.5L42.3,32.9z M37.6,28.7l-2.2-5.4L33,28.7H37.6z"/>
		
			<linearGradient id="SVGID_2_" gradientUnits="userSpaceOnUse" x1="34.58" y1="31.27" x2="37.93" y2="31.27" gradientTransform="matrix(1 0 0 -1 7 58.05)">
			<stop  offset="0" style="stop-color:#009EE2"/>
			<stop  offset="1" style="stop-color:#009540"/>
		</linearGradient>
		<path class="st1" d="M44.9,32.9h-1.7V22.9c0-1.1-0.2-1.9-1.3-1.9h-0.4v-0.4h1.7c0.7,0,1.1,0.1,1.3,0.4c0.3,0.6,0.4,1.2,0.3,1.8
			V32.9z"/>
		
			<linearGradient id="SVGID_3_" gradientUnits="userSpaceOnUse" x1="39.1" y1="31.2793" x2="42.46" y2="31.2793" gradientTransform="matrix(1 0 0 -1 7 58.05)">
			<stop  offset="0" style="stop-color:#009EE2"/>
			<stop  offset="1" style="stop-color:#009540"/>
		</linearGradient>
		<path class="st2" d="M49.5,32.9h-1.7V22.9c0-1.1-0.2-1.9-1.3-1.9h-0.4v-0.4h1.7c0.5-0.1,1,0.1,1.3,0.4c0.3,0.6,0.4,1.2,0.3,1.8
			V32.9z"/>
		
			<linearGradient id="SVGID_4_" gradientUnits="userSpaceOnUse" x1="45.97" y1="31.288" x2="56.24" y2="31.288" gradientTransform="matrix(1 0 0 -1 7 58.05)">
			<stop  offset="0" style="stop-color:#009EE2"/>
			<stop  offset="1" style="stop-color:#009540"/>
		</linearGradient>
		<path class="st3" d="M63.2,20.6v0.7H59v11.6h-1.7V21.4h-1.7c-1.5,0-2.3,0.7-2.3,2.2H53v-1.4c0-0.4,0.1-0.8,0.3-1.1
			c0.3-0.3,0.8-0.5,1.3-0.5L63.2,20.6z"/>
		
			<linearGradient id="SVGID_5_" gradientUnits="userSpaceOnUse" x1="55.18" y1="29.5101" x2="62.18" y2="29.5101" gradientTransform="matrix(1 0 0 -1 7 58.05)">
			<stop  offset="0" style="stop-color:#009EE2"/>
			<stop  offset="1" style="stop-color:#009540"/>
		</linearGradient>
		<path class="st4" d="M69.2,32.9h-0.9L67.6,32h-0.1c-0.7,0.7-1.6,1.1-2.6,1c-0.6,0-1.2-0.2-1.7-0.5c-0.7-0.5-1-1.3-1-2.1
			c0-0.9,0.6-1.7,1.5-2c1.1-0.4,2.2-0.6,3.3-0.5h0.6c0.1-0.9-0.1-1.8-0.6-2.6c-0.3-0.4-0.9-0.6-1.4-0.6c-1-0.1-1.9,0.6-2,1.6
			c0,0,0,0,0,0h-0.8c-0.1-0.6,0.1-1.2,0.4-1.7c0.3-0.3,0.7-0.4,1.2-0.5c0.5-0.1,1.1-0.1,1.7-0.1c0.8-0.1,1.6,0.2,2.3,0.7
			c0.8,0.9,1.1,2.1,1,3.3L69.2,32.9z M67.5,28.7h-0.6c-1.9,0-3,0.7-3,1.9c-0.1,0.9,0.6,1.7,1.6,1.8c0.1,0,0.1,0,0.2,0
			c0.8,0,1.4-0.4,1.8-1.1L67.5,28.7z"/>
		
			<linearGradient id="SVGID_6_" gradientUnits="userSpaceOnUse" x1="63.43" y1="29.5754" x2="70.63" y2="29.5754" gradientTransform="matrix(1 0 0 -1 7 58.05)">
			<stop  offset="0" style="stop-color:#009EE2"/>
			<stop  offset="1" style="stop-color:#009540"/>
		</linearGradient>
		<path class="st5" d="M73.6,32.9h-1.7v-6.5c0-1.1-0.2-1.9-1.3-1.9h-0.2v-0.4h1.5c1,0,1.4,0.3,1.6,0.8h0.1c0.6-0.7,1.4-1,2.2-1
			c0.4,0,0.8,0.1,1.1,0.3c0.3,0.2,0.5,0.5,0.7,0.8l-0.8,0.6c-0.4-0.4-0.9-0.7-1.5-0.6c-0.7,0-1.4,0.3-1.8,0.9L73.6,32.9z"/>
		
			<linearGradient id="SVGID_7_" gradientUnits="userSpaceOnUse" x1="71.3075" y1="27.7129" x2="79.5375" y2="27.7129" gradientTransform="matrix(1 0 0 -1 7 58.05)">
			<stop  offset="0" style="stop-color:#009EE2"/>
			<stop  offset="1" style="stop-color:#009540"/>
		</linearGradient>
		<path class="st6" d="M78.9,26.8c-0.1-0.9,0.3-1.7,1-2.2c0.8-0.4,1.6-0.6,2.5-0.6h3.5v0.5l-1.2,0.2v0.1c0.8,0.4,1.4,1.2,1.4,2.1
			c0.1,0.9-0.3,1.7-1,2.2c-0.8,0.4-1.6,0.6-2.5,0.6c-1.3,0-2,0.2-2,0.7s0.7,0.6,2,0.6c1,0,2,0.2,2.9,0.7c0.8,0.5,1.3,1.3,1.2,2.3
			c0,0.9-0.4,1.8-1.3,2.3c-1.8,0.9-4,0.9-5.8,0c-0.8-0.5-1.2-1.3-1.2-2.2c0.1-1.2,0.9-2.2,2-2.5c-0.4-0.2-0.7-0.6-0.7-1.1
			c0-0.4,0.3-0.8,0.7-1C79.3,28.8,78.8,27.8,78.9,26.8z M81.6,31.5c-1,0.3-1.6,1.2-1.6,2.3c0,1.5,1,2.1,2.4,2.1s2.4-0.6,2.4-2.1
			c0-1.3-0.8-2-2.3-2.2L81.6,31.5z M84.3,26.8c0-1.5-0.8-2.2-1.9-2.2c-0.5,0-0.9,0.1-1.3,0.4c-0.4,0.5-0.6,1.1-0.5,1.7
			c0,0.6,0.2,1.2,0.5,1.7c0.4,0.3,0.8,0.5,1.3,0.5c0.5,0,1-0.1,1.3-0.5C84.1,28,84.3,27.4,84.3,26.8z"/>
		
			<linearGradient id="SVGID_8_" gradientUnits="userSpaceOnUse" x1="80.88" y1="29.4801" x2="88.33" y2="29.4801" gradientTransform="matrix(1 0 0 -1 7 58.05)">
			<stop  offset="0" style="stop-color:#009EE2"/>
			<stop  offset="1" style="stop-color:#009540"/>
		</linearGradient>
		<path class="st7" d="M95.3,28.8h-5.7c0,0.9,0.2,1.8,0.7,2.5c0.4,0.6,1.1,1,1.8,1c1.1,0,2.1-0.5,2.6-1.5l0.4,0.3
			c-1,1.9-3.4,2.5-5.2,1.5c-0.4-0.2-0.8-0.5-1-0.9c-0.7-0.9-1-2.1-1-3.2c0-1.2,0.3-2.3,1-3.2c0.7-0.9,1.7-1.4,2.8-1.3
			c2.5,0,3.7,1.5,3.7,4.1L95.3,28.8z M93.6,28c0-2.2-0.7-3.4-2-3.4c-0.6,0-1.2,0.4-1.4,1c-0.4,0.7-0.6,1.5-0.5,2.4H93.6z"/>
		
			<linearGradient id="SVGID_9_" gradientUnits="userSpaceOnUse" x1="89.53" y1="30.7993" x2="95.39" y2="30.7993" gradientTransform="matrix(1 0 0 -1 7 58.05)">
			<stop  offset="0" style="stop-color:#009EE2"/>
			<stop  offset="1" style="stop-color:#009540"/>
		</linearGradient>
		<path class="st8" d="M97.8,24.9h-1.3v-0.7h1.3v-1.7l0.9-1.1h0.8v2.8h2.2v0.7h-2.2v5.8c0,1.1,0.4,1.7,1.3,1.7c0.5,0,1-0.1,1.4-0.4
			l0.2,0.4c-0.2,0.2-0.5,0.4-0.8,0.5c-0.5,0.2-1,0.3-1.5,0.3c-1.3,0-2.2-0.7-2.2-2.4L97.8,24.9z"/>
		
			<linearGradient id="SVGID_10_" gradientUnits="userSpaceOnUse" x1="95.39" y1="31.0716" x2="98.74" y2="31.0716" gradientTransform="matrix(1 0 0 -1 7 58.05)">
			<stop  offset="0" style="stop-color:#009EE2"/>
			<stop  offset="1" style="stop-color:#009540"/>
		</linearGradient>
		<path class="st9" d="M105.7,32.9h-1.7v-6.5c0-1.1-0.2-1.9-1.3-1.9h-0.4v-0.4h1.7c0.7,0,1.1,0.1,1.3,0.4c0.3,0.6,0.4,1.2,0.3,1.8
			V32.9z M105.6,22.2c0,0.4-0.3,0.8-0.7,0.8c0,0-0.1,0-0.1,0c-0.6,0-1.1-0.6-1.1-1.2c0-0.4,0.3-0.8,0.7-0.8c0,0,0.1,0,0.1,0
			C105.2,21.1,105.7,21.6,105.6,22.2C105.6,22.2,105.6,22.2,105.6,22.2z"/>
		
			<linearGradient id="SVGID_11_" gradientUnits="userSpaceOnUse" x1="99.97" y1="29.5945" x2="108.93" y2="29.5945" gradientTransform="matrix(1 0 0 -1 7 58.05)">
			<stop  offset="0" style="stop-color:#009EE2"/>
			<stop  offset="1" style="stop-color:#009540"/>
		</linearGradient>
		<path class="st10" d="M110.3,32.9h-1.7v-6.5c0-1.1-0.2-1.9-1.3-1.9H107v-0.4h1.7c1,0,1.4,0.3,1.6,0.7h0.1c0.7-0.6,1.5-0.9,2.4-0.9
			c0.8-0.1,1.6,0.2,2.2,0.7c0.7,0.7,1.1,1.7,1,2.7v5.6h-1.7v-5.6c0.1-0.7-0.2-1.4-0.6-2c-0.4-0.4-0.9-0.6-1.4-0.5
			c-0.7,0.1-1.4,0.4-1.9,1L110.3,32.9z"/>
		
			<linearGradient id="SVGID_12_" gradientUnits="userSpaceOnUse" x1="110.6669" y1="27.7277" x2="118.8925" y2="27.7277" gradientTransform="matrix(1 0 0 -1 7 58.05)">
			<stop  offset="0" style="stop-color:#009EE2"/>
			<stop  offset="1" style="stop-color:#009540"/>
		</linearGradient>
		<path class="st11" d="M118.2,26.8c-0.1-0.9,0.3-1.7,1-2.2c0.8-0.4,1.6-0.6,2.5-0.6h3.5v0.5l-1.2,0.2v0.1c0.8,0.4,1.3,1.2,1.3,2.1
			c0.1,0.9-0.3,1.7-1,2.2c-0.8,0.4-1.7,0.6-2.5,0.6c-1.3,0-2,0.2-2,0.7s0.7,0.6,2,0.6c1,0,2,0.2,2.9,0.7c0.8,0.5,1.3,1.3,1.2,2.3
			c0,0.9-0.4,1.8-1.2,2.2c-1.8,0.9-4,0.9-5.8,0c-0.8-0.5-1.2-1.3-1.2-2.2c0.1-1.2,0.9-2.2,2-2.5c-0.4-0.2-0.7-0.6-0.7-1.1
			c0-0.4,0.3-0.8,0.7-1C118.7,28.7,118.2,27.8,118.2,26.8z M120.9,31.5c-1,0.3-1.7,1.2-1.6,2.3c0,1.5,1,2.1,2.4,2.1s2.4-0.6,2.4-2.1
			c0-1.3-0.8-2-2.3-2.2L120.9,31.5z M123.6,26.8c0-1.5-0.8-2.2-1.9-2.2c-0.5,0-0.9,0.1-1.3,0.5c-0.4,0.5-0.6,1.1-0.6,1.7
			c0,0.6,0.2,1.2,0.6,1.7c0.3,0.3,0.8,0.5,1.3,0.5c0.5,0,1-0.1,1.3-0.5C123.5,28,123.7,27.4,123.6,26.8z"/>
		
			<image style="overflow:visible;opacity:0.51;enable-background:new    ;" width="33" height="42" xlink:href="6B54E0CB.png"  transform="matrix(1 0 0 1 -4 7)">
		</image>
		<path class="st12" d="M8.5,32.4c1.8,1.1,4,1.7,6.1,1.7c0.6,0,1.2-0.1,1.7-0.1l-3-16L8.5,32.4z"/>
		<path class="st12" d="M18.5,18h7.3c-0.1-0.3-0.3-0.7-0.4-1h-7L18.5,18z"/>
		
			<image style="overflow:visible;opacity:0.51;enable-background:new    ;" width="29" height="36" xlink:href="6B54E0CE.png"  transform="matrix(1 0 0 1 10 10)">
		</image>
		<path class="st12" d="M26.6,22.2c0-0.5,0-0.9-0.1-1.4l-4.3,10.6C24.9,29.2,26.6,25.8,26.6,22.2z"/>
		<path class="st12" d="M17.7,13.6l0.3,1.6h6.3C20.4,9.8,13,8.6,7.6,12.5S1.1,23.7,4.9,29.1c0.1,0.2,0.3,0.4,0.5,0.6l5.4-16.1h4
			l-0.1,0.2h0.1l3.7,19.7l0.5-0.2l-3.7-19.7H17.7z"/>
		<polygon class="st12" points="18.8,19.7 19.8,24.6 21.8,19.7 		"/>
		<polygon class="st12" points="23.8,19.7 20.4,28.1 20.8,29.9 24.9,19.7 		"/>
		<path class="st12" d="M14.8,13.8l0.1-0.2h-4L5.4,29.7c0.9,1.1,1.9,2,3.1,2.7L13.4,18l3,16c0.7-0.1,1.5-0.3,2.2-0.5L14.8,13.8
			L14.8,13.8z"/>
		<path class="st12" d="M18.5,18l-0.2-1h7c-0.3-0.6-0.7-1.2-1.1-1.8H18l-0.3-1.6h-2.3l3.7,19.7c1.1-0.4,2.1-1,3-1.8l4.3-10.6
			c-0.1-1-0.3-2-0.7-2.9H18.5z M18.8,19.7h3l-2,4.9L18.8,19.7z M20.4,28l3.4-8.3h1.1l-4.1,10.2L20.4,28z"/>
		
			<linearGradient id="SVGID_13_" gradientUnits="userSpaceOnUse" x1="8.38" y1="32.94" x2="36.14" y2="32.94" gradientTransform="matrix(1 0 0 -1 7 58.05)">
			<stop  offset="0" style="stop-color:#009EE2"/>
			<stop  offset="1" style="stop-color:#009540"/>
		</linearGradient>
		<path class="st13" d="M25.8,18h-7.3l-0.2-1h14.6v-1.8H18l-0.3-1.6h-2.3l3.7,19.7l0.6,3.4H22l-0.6-3.3l0.7-1.8l4.3-10.6l0.5-1.1h6
			V18H25.8z M18.8,19.7h3l-2,4.9L18.8,19.7z M20.8,29.9L20.4,28l3.4-8.3h1.1L20.8,29.9z"/>
		
			<linearGradient id="SVGID_14_" gradientUnits="userSpaceOnUse" x1="-1.63" y1="32.855" x2="20.25" y2="32.855" gradientTransform="matrix(1 0 0 -1 7 58.05)">
			<stop  offset="0" style="stop-color:#009EE2"/>
			<stop  offset="1" style="stop-color:#009540"/>
		</linearGradient>
		<path class="st14" d="M14.8,13.8L14.8,13.8l0-0.2h-4L5.4,29.7c0.9,1.1,1.9,2,3.1,2.7L13.4,18l3,16l0.5,2.8h2.3l-0.6-3.4L14.8,13.8
			z"/>
	</g>
</g>
</svg>
