<?xml version="1.0" encoding="utf-8"?>
<!-- Generator: Adobe Illustrator 23.0.5, SVG Export Plug-In . SVG Version: 6.00 Build 0)  -->
<svg version="1.1" id="Layer_1" xmlns="http://www.w3.org/2000/svg" xmlns:xlink="http://www.w3.org/1999/xlink" x="0px" y="0px"
	 viewBox="0 0 132 46" style="enable-background:new 0 0 132 46;" xml:space="preserve">
<style type="text/css">
	.st0{fill:url(#SVGID_1_);}
	.st1{fill:url(#SVGID_2_);}
	.st2{fill:url(#SVGID_3_);}
	.st3{fill:url(#SVGID_4_);}
	.st4{fill:url(#SVGID_5_);}
	.st5{fill:url(#SVGID_6_);}
	.st6{fill:url(#SVGID_7_);}
	.st7{fill:url(#SVGID_8_);}
	.st8{fill:url(#SVGID_9_);}
	.st9{fill:url(#SVGID_10_);}
	.st10{fill:url(#SVGID_11_);}
	.st11{fill:url(#SVGID_12_);}
	.st12{fill:#FFFFFF;}
	.st13{fill:url(#SVGID_13_);}
	.st14{fill:url(#SVGID_14_);}
</style>
<g>
	<linearGradient id="SVGID_1_" gradientUnits="userSpaceOnUse" x1="31.524" y1="25.0487" x2="43.4732" y2="25.0487">
		<stop  offset="0" style="stop-color:#009EE2"/>
		<stop  offset="1" style="stop-color:#009540"/>
	</linearGradient>
	<path class="st0" d="M43.5,31.2c-0.2,0.1-0.5,0.1-0.7,0.1c-0.4,0-1-0.1-1.6-0.4c-0.6-0.3-1.2-1-1.6-2l-0.5-1.2h-5.2l-1.5,3.6h-0.9
		l5.2-12.3h0.6l4.1,10c0.3,0.7,0.5,1.2,0.9,1.5c0.3,0.3,0.7,0.4,1.2,0.5V31.2z M38.7,26.9l-2.2-5.4l-2.3,5.4H38.7z"/>
	<linearGradient id="SVGID_2_" gradientUnits="userSpaceOnUse" x1="42.7348" y1="25.0061" x2="46.0921" y2="25.0061">
		<stop  offset="0" style="stop-color:#009EE2"/>
		<stop  offset="1" style="stop-color:#009540"/>
	</linearGradient>
	<path class="st1" d="M46.1,31.2h-1.7V21.1c0-1.1-0.2-1.9-1.3-1.9h-0.4v-0.4h1.7c0.7,0,1.1,0.1,1.3,0.4c0.3,0.3,0.3,0.9,0.3,1.8
		V31.2z"/>
	<linearGradient id="SVGID_3_" gradientUnits="userSpaceOnUse" x1="47.2588" y1="25.0061" x2="50.616" y2="25.0061">
		<stop  offset="0" style="stop-color:#009EE2"/>
		<stop  offset="1" style="stop-color:#009540"/>
	</linearGradient>
	<path class="st2" d="M50.6,31.2h-1.7V21.1c0-1.1-0.2-1.9-1.3-1.9h-0.4v-0.4h1.7c0.7,0,1.1,0.1,1.3,0.4c0.3,0.3,0.3,0.9,0.3,1.8
		V31.2z"/>
	<linearGradient id="SVGID_4_" gradientUnits="userSpaceOnUse" x1="54.1286" y1="25.0061" x2="64.3997" y2="25.0061">
		<stop  offset="0" style="stop-color:#009EE2"/>
		<stop  offset="1" style="stop-color:#009540"/>
	</linearGradient>
	<path class="st3" d="M64.4,18.8v0.7h-4.2v11.6h-1.7V19.6h-1.7c-1.5,0-2.3,0.7-2.3,2.2h-0.4v-1.4c0-0.4,0.1-0.8,0.3-1.1
		c0.2-0.3,0.6-0.5,1.3-0.5H64.4z"/>
	<linearGradient id="SVGID_5_" gradientUnits="userSpaceOnUse" x1="63.3394" y1="26.7844" x2="70.3384" y2="26.7844">
		<stop  offset="0" style="stop-color:#009EE2"/>
		<stop  offset="1" style="stop-color:#009540"/>
	</linearGradient>
	<path class="st4" d="M70.3,31.2h-0.9l-0.7-0.9h-0.1c-0.4,0.5-1.2,1.1-2.6,1.1c-0.5,0-1.2-0.2-1.7-0.5c-0.5-0.4-1-1.1-1-2.1
		c0-1,0.5-1.7,1.4-2.1c0.9-0.4,2-0.5,3.3-0.5h0.6c0-1.3-0.2-2.1-0.6-2.6c-0.4-0.4-0.9-0.6-1.4-0.6c-1.1,0-1.8,0.4-2,1.6h-0.9
		c0-0.7,0-1.2,0.5-1.7c0.2-0.2,0.7-0.4,1.2-0.5c0.5-0.1,1.1-0.1,1.6-0.1c0.8,0,1.7,0.1,2.3,0.7c0.6,0.6,1,1.6,1,3.2V31.2z
		 M68.7,26.9h-0.6c-1.9,0-3,0.7-3,1.9c0,0.6,0.2,1,0.5,1.3c0.3,0.3,0.8,0.4,1.2,0.4c0.9,0,1.4-0.5,1.8-1.1V26.9z"/>
	<linearGradient id="SVGID_6_" gradientUnits="userSpaceOnUse" x1="71.5914" y1="26.6848" x2="78.7896" y2="26.6848">
		<stop  offset="0" style="stop-color:#009EE2"/>
		<stop  offset="1" style="stop-color:#009540"/>
	</linearGradient>
	<path class="st5" d="M74.8,31.2h-1.7v-6.5c0-1.1-0.2-1.8-1.3-1.8h-0.2v-0.4h1.5c1,0,1.4,0.3,1.6,0.8h0.1c0.4-0.5,1.1-1,2.2-1
		c0.4,0,0.9,0.1,1.1,0.3c0.3,0.2,0.4,0.5,0.7,0.8L78,23.9c-0.3-0.4-0.8-0.6-1.5-0.6c-0.7,0-1.4,0.4-1.8,0.9V31.2z"/>
	<linearGradient id="SVGID_7_" gradientUnits="userSpaceOnUse" x1="79.4736" y1="28.5483" x2="87.6958" y2="28.5483">
		<stop  offset="0" style="stop-color:#009EE2"/>
		<stop  offset="1" style="stop-color:#009540"/>
	</linearGradient>
	<path class="st6" d="M80,25c0-1.1,0.4-1.8,1-2.2c0.7-0.4,1.5-0.6,2.5-0.6H87v0.5l-1.2,0.2v0.1c0.7,0.4,1.3,1.1,1.3,2.1
		c0,1.1-0.4,1.8-1,2.2c-0.6,0.4-1.6,0.6-2.5,0.6c-1.3,0-2,0.2-2,0.7c0,0.4,0.7,0.7,2,0.7c1.1,0,2.2,0.2,2.9,0.7
		c0.7,0.5,1.2,1.2,1.2,2.2s-0.5,1.8-1.2,2.2c-0.7,0.5-1.7,0.7-2.9,0.7c-1.2,0-2.2-0.2-2.9-0.7c-0.7-0.5-1.2-1.2-1.2-2.2
		c0-1.2,0.9-2.1,2-2.4c-0.4-0.2-0.7-0.5-0.7-1.1c0-0.6,0.4-0.8,0.7-1C80.7,27.1,80,26.2,80,25z M82.7,29.8c-1,0.4-1.6,1-1.6,2.2
		c0,1.5,1,2.1,2.4,2.1c1.4,0,2.4-0.7,2.4-2.1c0-1.3-0.8-2-2.2-2.2L82.7,29.8z M85.4,25c0-1.5-0.8-2.2-1.9-2.2c-0.5,0-1,0.1-1.3,0.5
		c-0.3,0.3-0.5,0.9-0.5,1.7c0,0.8,0.2,1.3,0.5,1.7c0.3,0.3,0.8,0.5,1.3,0.5c0.5,0,1-0.1,1.3-0.5C85.2,26.3,85.4,25.8,85.4,25z"/>
	<linearGradient id="SVGID_8_" gradientUnits="userSpaceOnUse" x1="89.034" y1="26.7844" x2="96.488" y2="26.7844">
		<stop  offset="0" style="stop-color:#009EE2"/>
		<stop  offset="1" style="stop-color:#009540"/>
	</linearGradient>
	<path class="st7" d="M96.5,27.1h-5.7c0,1,0.2,1.9,0.7,2.5c0.5,0.6,1.1,1,1.8,1c1.2,0,2-0.5,2.6-1.5l0.4,0.3c-0.8,1.4-1.9,2-3.4,2
		c-1.3,0-2.3-0.5-2.9-1.4c-0.7-0.8-1-2-1-3.2c0-1.3,0.3-2.4,1-3.2c0.7-0.8,1.6-1.3,2.8-1.3c2.5,0,3.7,1.5,3.7,4.1L96.5,27.1z
		 M94.7,26.3c0-2.2-0.7-3.4-2-3.4c-0.6,0-1.1,0.4-1.4,1c-0.4,0.6-0.6,1.4-0.6,2.4H94.7z"/>
	<linearGradient id="SVGID_9_" gradientUnits="userSpaceOnUse" x1="97.6845" y1="25.4757" x2="103.5456" y2="25.4757">
		<stop  offset="0" style="stop-color:#009EE2"/>
		<stop  offset="1" style="stop-color:#009540"/>
	</linearGradient>
	<path class="st8" d="M99,23.1h-1.3v-0.7H99v-1.7l0.9-1.1h0.8v2.8h2.2v0.7h-2.2v5.8c0,1.1,0.4,1.7,1.3,1.7c0.7,0,1-0.2,1.4-0.4
		l0.2,0.4c-0.2,0.2-0.4,0.3-0.8,0.5c-0.4,0.2-0.9,0.3-1.5,0.3c-1.3,0-2.2-0.7-2.2-2.4V23.1z"/>
	<linearGradient id="SVGID_10_" gradientUnits="userSpaceOnUse" x1="103.5456" y1="25.2054" x2="106.9029" y2="25.2054">
		<stop  offset="0" style="stop-color:#009EE2"/>
		<stop  offset="1" style="stop-color:#009540"/>
	</linearGradient>
	<path class="st9" d="M106.9,31.2h-1.7v-6.5c0-1.1-0.2-1.8-1.3-1.8h-0.4v-0.4h1.7c0.7,0,1.1,0.1,1.3,0.4c0.3,0.3,0.3,0.9,0.3,1.8
		V31.2z M106.8,20.4c0,0.5-0.3,0.8-0.9,0.8c-0.6,0-1.1-0.5-1.1-1.2c0-0.5,0.3-0.8,0.9-0.8C106.3,19.2,106.8,19.8,106.8,20.4z"/>
	<linearGradient id="SVGID_11_" gradientUnits="userSpaceOnUse" x1="108.1271" y1="26.6848" x2="117.0887" y2="26.6848">
		<stop  offset="0" style="stop-color:#009EE2"/>
		<stop  offset="1" style="stop-color:#009540"/>
	</linearGradient>
	<path class="st10" d="M111.5,31.2h-1.7v-6.5c0-1.1-0.2-1.8-1.3-1.8h-0.4v-0.4h1.7c1,0,1.4,0.3,1.6,0.7h0.1c0.5-0.5,1.3-0.9,2.4-0.9
		c0.8,0,1.6,0.1,2.2,0.7c0.6,0.5,1,1.4,1,2.7v5.6h-1.7v-5.6c0-0.9-0.3-1.6-0.6-2c-0.4-0.4-0.9-0.5-1.4-0.5c-0.8,0-1.4,0.5-1.9,1
		V31.2z"/>
	<linearGradient id="SVGID_12_" gradientUnits="userSpaceOnUse" x1="118.8254" y1="28.5483" x2="127.0476" y2="28.5483">
		<stop  offset="0" style="stop-color:#009EE2"/>
		<stop  offset="1" style="stop-color:#009540"/>
	</linearGradient>
	<path class="st11" d="M119.4,25c0-1.1,0.4-1.8,1-2.2c0.7-0.4,1.5-0.6,2.5-0.6h3.5v0.5l-1.2,0.2v0.1c0.7,0.4,1.3,1.1,1.3,2.1
		c0,1.1-0.4,1.8-1,2.2c-0.6,0.4-1.6,0.6-2.5,0.6c-1.3,0-2,0.2-2,0.7c0,0.4,0.7,0.7,2,0.7c1.1,0,2.2,0.2,2.9,0.7
		c0.7,0.5,1.2,1.2,1.2,2.2s-0.5,1.8-1.2,2.2c-0.7,0.5-1.7,0.7-2.9,0.7c-1.2,0-2.2-0.2-2.9-0.7c-0.7-0.5-1.2-1.2-1.2-2.2
		c0-1.2,0.9-2.1,2-2.4c-0.4-0.2-0.7-0.5-0.7-1.1c0-0.6,0.4-0.8,0.7-1C120,27.1,119.4,26.2,119.4,25z M122.1,29.8
		c-1,0.4-1.6,1-1.6,2.2c0,1.5,1,2.1,2.4,2.1c1.4,0,2.4-0.7,2.4-2.1c0-1.3-0.8-2-2.2-2.2L122.1,29.8z M124.8,25
		c0-1.5-0.8-2.2-1.9-2.2c-0.5,0-1,0.1-1.3,0.5c-0.3,0.3-0.5,0.9-0.5,1.7c0,0.8,0.2,1.3,0.5,1.7c0.3,0.3,0.8,0.5,1.3,0.5
		c0.5,0,1-0.1,1.3-0.5C124.6,26.3,124.8,25.8,124.8,25z"/>
</g>
<path class="st12" d="M9.7,30.6c1.8,1.1,3.9,1.7,6.1,1.7c0.6,0,1.2-0.1,1.7-0.1l-3-16L9.7,30.6z"/>
<path class="st12" d="M19.7,16.2h7.3c-0.1-0.3-0.3-0.7-0.4-1h-7L19.7,16.2z"/>
<path class="st12" d="M27.7,20.4c0-0.5,0-0.9-0.1-1.4l-4.3,10.6C26,27.5,27.7,24.2,27.7,20.4z"/>
<path class="st12" d="M18.8,11.8l0.3,1.6h6.3c-2.2-3-5.7-4.9-9.6-4.9c-6.6,0-11.9,5.3-11.9,11.9c0,2.8,1,5.5,2.7,7.5l5.4-16.1h4
	L15.9,12H16l3.7,19.7c0.2-0.1,0.4-0.1,0.5-0.2l-3.7-19.7H18.8z"/>
<polygon class="st12" points="20,17.9 20.9,22.9 22.9,17.9 "/>
<polygon class="st12" points="25,17.9 21.6,26.3 21.9,28.1 26.1,17.9 "/>
<path class="st12" d="M15.9,12l0.1-0.2h-4L6.5,27.9c0.9,1.1,1.9,2,3.1,2.7l4.8-14.4l3,16c0.8-0.1,1.5-0.3,2.2-0.5L15.9,12L15.9,12z"
	/>
<path class="st12" d="M19.7,16.2l-0.2-1h7c-0.3-0.6-0.7-1.2-1.1-1.8h-6.3l-0.3-1.6h-2.3l3.7,19.7c1.1-0.4,2.1-1.1,3-1.8l4.3-10.6
	c-0.1-1-0.4-2-0.7-2.9H19.7z M20,17.9h2.9l-2,4.9L20,17.9z M21.6,26.3l3.4-8.3h1.1l-4.1,10.2L21.6,26.3z"/>
<g>
	<linearGradient id="SVGID_13_" gradientUnits="userSpaceOnUse" x1="16.5358" y1="23.3287" x2="44.3018" y2="23.3287">
		<stop  offset="0" style="stop-color:#009EE2"/>
		<stop  offset="1" style="stop-color:#009540"/>
	</linearGradient>
	<path class="st13" d="M26.9,16.2h-7.3l-0.2-1h7H34v-1.8h-8.6h-6.3l-0.3-1.6h-2.3l3.7,19.7l0.6,3.4h2.3l-0.6-3.3l0.7-1.8l4.3-10.6
		l0.5-1.1h6v-1.8H26.9z M20,17.9h2.9l-2,4.9L20,17.9z M21.9,28.1l-0.3-1.8l3.4-8.3h1.1L21.9,28.1z"/>
	<linearGradient id="SVGID_14_" gradientUnits="userSpaceOnUse" x1="6.5323" y1="23.4151" x2="28.4085" y2="23.4151">
		<stop  offset="0" style="stop-color:#009EE2"/>
		<stop  offset="1" style="stop-color:#009540"/>
	</linearGradient>
	<path class="st14" d="M16,12L16,12l0-0.2h-4L6.5,27.9c0.9,1.1,1.9,2,3.1,2.7l4.8-14.4l3,16l0.5,2.8h2.3l-0.6-3.3L16,12z"/>
</g>
</svg>
