<svg version="1.2" xmlns="http://www.w3.org/2000/svg" viewBox="0 0 48 48" width="48" height="48">
	<title>3_step_center_aligned_how_it_worksSvg2-svg</title>
	<style>
		.s0 { fill: #f3f4f6;stroke: #818cf8 } 
		.s1 { fill: #13757b } 
		.s2 { fill: #ffffff } 
	</style>
	<path id="Layer" class="s0" d="m0.5 24c0-13 10.5-23.5 23.5-23.5 13 0 23.5 10.5 23.5 23.5 0 13-10.5 23.5-23.5 23.5-13 0-23.5-10.5-23.5-23.5z"/>
	<path id="Layer" class="s1" d="m0 24c0-13.3 10.7-24 24-24 13.3 0 24 10.7 24 24 0 13.3-10.7 24-24 24-13.3 0-24-10.7-24-24z"/>
	<path id="Layer" class="s2" d="m18.2 31.2q3.1-2.4 4.8-4 1.7-1.5 2.9-3.2 1.2-1.8 1.2-3.4 0-1.6-0.8-2.5-0.7-0.9-2.4-0.9-1.6 0-2.5 1-0.9 1-1 2.8h-2.1q0.1-2.7 1.6-4.2 1.6-1.5 4-1.5 2.5 0 3.9 1.4 1.5 1.4 1.5 3.8 0 2-1.2 3.9-1.2 1.8-2.7 3.3-1.5 1.4-3.9 3.3h8.3v1.8h-11.6z"/>
</svg>