<svg version="1.2" xmlns="http://www.w3.org/2000/svg" viewBox="0 0 48 48" width="48" height="48">
	<title>3_step_center_aligned_how_it_worksSvg6-svg</title>
	<style>
		.s0 { fill: #13757b } 
		.s1 { fill: #ffffff } 
	</style>
	<path id="Layer" class="s0" d="m0 24c0-13.3 10.7-24 24-24 13.3 0 24 10.7 24 24 0 13.3-10.7 24-24 24-13.3 0-24-10.7-24-24z"/>
	<path id="Layer" class="s1" d="m17.4 20q0.2-2.2 1.7-3.4 1.6-1.3 4-1.3 1.7 0 2.8 0.6 1.2 0.6 1.8 1.6 0.7 1 0.7 2.3 0 1.5-0.9 2.5-0.8 1.1-2.2 1.4v0.2q1.5 0.3 2.5 1.5 0.9 1.1 0.9 2.9 0 1.4-0.7 2.5-0.6 1.1-1.8 1.7-1.3 0.6-3 0.6-2.6 0-4.2-1.3-1.6-1.3-1.8-3.8h2.1q0.2 1.4 1.2 2.4 1 0.9 2.7 0.9 1.6 0 2.5-0.9 0.9-0.9 0.9-2.3 0-1.8-1.2-2.6-1.2-0.8-3.6-0.8h-0.6v-1.8h0.6q2.2 0 3.3-0.7 1.1-0.7 1.1-2.2 0-1.3-0.8-2-0.8-0.8-2.3-0.8-1.5 0-2.4 0.8-1 0.7-1.1 2z"/>
</svg>