<svg version="1.2" xmlns="http://www.w3.org/2000/svg" viewBox="0 0 127 128" width="127" height="128">
	<title>3_step_center_aligned_how_it_worksSvg3-svg</title>
	<style>
		.s0 { opacity: .8;fill: #479db2 } 
		.s1 { fill: none;stroke: #ffffff;stroke-linecap: round;stroke-linejoin: round;stroke-width: 3 } 
		.s2 { fill: #479db2 } 
		.s3 { fill: #115e71 } 
		.s4 { fill: #ffffff } 
		.s5 { fill: #f3f4f6 } 
	</style>
	<path id="Layer" class="s0" d="m64.8 124.6c33.6 0 60.8-27.2 60.8-60.8 0-33.6-27.2-60.8-60.8-60.8-33.6 0-60.8 27.2-60.8 60.8 0 33.6 27.2 60.8 60.8 60.8z"/>
	<path id="Layer" fill-rule="evenodd" class="s1" d="m71 50.5l6 6-6 6"/>
	<path id="Layer" fill-rule="evenodd" class="s1" d="m62 56.5h15"/>
	<path id="Layer" fill-rule="evenodd" class="s1" d="m59 65.5l-6 6 6 6"/>
	<path id="Layer" fill-rule="evenodd" class="s1" d="m53 71.5h13.5"/>
	<path id="Layer" class="s2" d="m117.7 12.5c3.4 0 6.2-2.8 6.2-6.3 0-3.4-2.8-6.2-6.2-6.2-3.5 0-6.2 2.8-6.2 6.2 0 3.5 2.7 6.3 6.2 6.3z"/>
	<path id="Layer" class="s3" d="m6.2 92.1c3.5 0 6.3-2.8 6.3-6.3 0-3.4-2.8-6.2-6.3-6.2-3.4 0-6.2 2.8-6.2 6.2 0 3.5 2.8 6.3 6.2 6.3z"/>
	<path id="Layer" class="s4" d="m11.8 70.2c2.3 0 4.1-1.8 4.1-4.1 0-2.3-1.8-4.1-4.1-4.1-2.2 0-4.1 1.8-4.1 4.1 0 2.3 1.9 4.1 4.1 4.1z"/>
	<path id="Layer" class="s4" d="m22.8 127.6c1.6 0 2.8-1.2 2.8-2.8 0-1.6-1.2-2.8-2.8-2.8-1.6 0-2.8 1.2-2.8 2.8 0 1.6 1.2 2.8 2.8 2.8z"/>
	<path id="Layer" class="s4" d="m123.9 24.1c1.7 0 3.1-1.3 3.1-3 0-1.7-1.4-3.1-3.1-3.1-1.7 0-3.1 1.4-3.1 3.1 0 1.7 1.4 3 3.1 3z"/>
	<path id="Layer" class="s4" d="m108.5 4.3c0.9 0 1.6-0.7 1.6-1.6 0-0.9-0.7-1.7-1.6-1.7-1 0-1.7 0.8-1.7 1.7 0 0.9 0.7 1.6 1.7 1.6z"/>
	<path id="Layer" class="s5" d="m96.7 126.1c13.1 0 23.8-10.7 23.8-23.8 0-13.1-10.7-23.7-23.8-23.7-13.1 0-23.7 10.6-23.7 23.7 0 13.1 10.6 23.8 23.7 23.8z"/>
	<path id="Layer" class="s2" d="m96.7 122.7c11.3 0 20.4-9.1 20.4-20.4 0-11.3-9.1-20.4-20.4-20.4-11.3 0-20.4 9.1-20.4 20.4 0 11.3 9.1 20.4 20.4 20.4z"/>
	<path id="Layer" fill-rule="evenodd" class="s5" d="m95.4 110.2c-2.5-0.2-4.4-1.1-5.7-2.5l1.9-2.5c0.9 0.9 2.2 1.7 3.8 2v-3.8c-2.5-0.6-5.2-1.5-5.2-4.8 0-2.4 1.9-4.5 5.2-4.8v-2.2h2.3v2.2c1.9 0.3 3.5 1 4.8 2.2l-1.9 2.5c-0.8-0.8-1.9-1.3-2.9-1.6v3.4c2.4 0.6 5.2 1.6 5.2 4.9 0 2.6-1.7 4.7-5.2 5v2.2h-2.3zm2.3-6.2v3.2c1.1-0.3 1.7-1 1.7-1.7 0-0.8-0.7-1.2-1.7-1.5zm-2.3-4.3v-3c-1.1 0.2-1.7 0.8-1.7 1.6 0 0.7 0.7 1.1 1.7 1.4z"/>
</svg>